<svg xmlns="http://www.w3.org/2000/svg" xmlns:xlink="http://www.w3.org/1999/xlink" viewBox="0 0 1230.43 1154.48"><defs><style>.cls-1{isolation:isolate;}.cls-2{opacity:0.4;fill:url(#linear-gradient);}.cls-3,.cls-39,.cls-4,.cls-6{opacity:0.9;}.cls-3,.cls-4,.cls-41,.cls-42,.cls-46,.cls-48,.cls-6{mix-blend-mode:multiply;}.cls-3{fill:url(#linear-gradient-2);}.cls-4{fill:url(#linear-gradient-3);}.cls-32,.cls-5{fill:#fff;}.cls-6{fill:url(#linear-gradient-4);}.cls-7{fill:url(#linear-gradient-5);}.cls-8{fill:#ddf0f4;}.cls-9{fill:#9fdcdd;}.cls-10{fill:#80d0d1;}.cls-11{fill:url(#linear-gradient-6);}.cls-12{fill:url(#linear-gradient-7);}.cls-13{fill:url(#linear-gradient-8);}.cls-14{fill:url(#linear-gradient-9);}.cls-15{fill:url(#linear-gradient-10);}.cls-16{fill:url(#linear-gradient-11);}.cls-17{fill:none;}.cls-18{font-size:89.15px;font-family:NexaBlack, Nexa Black;}.cls-18,.cls-34{fill:#29739d;}.cls-19{letter-spacing:-0.01em;}.cls-20{letter-spacing:-0.03em;}.cls-21{letter-spacing:-0.06em;}.cls-22{letter-spacing:0em;}.cls-23{fill:#3c0458;}.cls-24{fill:#2a4654;}.cls-25{fill:url(#linear-gradient-12);}.cls-26{fill:url(#linear-gradient-13);}.cls-27{fill:#fb9fc8;}.cls-28{fill:#644242;}.cls-29{fill:url(#linear-gradient-14);}.cls-30{fill:url(#linear-gradient-15);}.cls-31{fill:url(#linear-gradient-16);}.cls-32{stroke:#000;stroke-miterlimit:10;}.cls-33{fill:#d5254c;}.cls-35{fill:#f15a24;}.cls-36{fill:#f7931e;}.cls-37{fill:url(#linear-gradient-17);}.cls-38{fill:#74c0eb;}.cls-40{fill:url(#linear-gradient-18);}.cls-41{fill:url(#linear-gradient-19);}.cls-42{fill:url(#linear-gradient-20);}.cls-43{fill:url(#linear-gradient-21);}.cls-44{fill:url(#linear-gradient-22);}.cls-45{fill:url(#linear-gradient-23);}.cls-46{fill:url(#linear-gradient-24);}.cls-47{fill:url(#linear-gradient-25);}.cls-48{fill:url(#linear-gradient-26);}.cls-49{fill:url(#linear-gradient-27);}.cls-50{fill:#006838;}.cls-51{opacity:0.5;fill:url(#linear-gradient-28);}.cls-52{fill:url(#linear-gradient-29);}</style><linearGradient id="linear-gradient" x1="-1722.62" y1="7325.54" x2="-1722.62" y2="5982.76" gradientTransform="matrix(0, -1.45, 1.24, 0, -7512.01, -1549.85)" gradientUnits="userSpaceOnUse"><stop offset="0.25" stop-color="#fff"/><stop offset="1" stop-color="#26a9e0"/></linearGradient><linearGradient id="linear-gradient-2" x1="917.52" y1="982.8" x2="927.6" y2="525.71" gradientTransform="matrix(1, -0.02, 0.02, 1, -26.42, -39.15)" gradientUnits="userSpaceOnUse"><stop offset="0" stop-color="#fff"/><stop offset="0.62" stop-color="#f7941e"/><stop offset="1" stop-color="#f04e36"/></linearGradient><linearGradient id="linear-gradient-3" x1="811.73" y1="1147.18" x2="821.8" y2="690.09" xlink:href="#linear-gradient-2"/><linearGradient id="linear-gradient-4" x1="-10141.31" y1="-1087.7" x2="-9596.25" y2="-143.64" gradientTransform="translate(-9138.44 607.83) rotate(180)" xlink:href="#linear-gradient-2"/><linearGradient id="linear-gradient-5" x1="-4570.22" y1="-1413.33" x2="-4151.99" y2="-688.94" gradientTransform="translate(4588.08 2133.82)" gradientUnits="userSpaceOnUse"><stop offset="0.24" stop-color="#fff"/><stop offset="0.65" stop-color="#97ccef"/><stop offset="1" stop-color="#74c0eb"/></linearGradient><linearGradient id="linear-gradient-6" x1="680.31" y1="846.49" x2="770.48" y2="846.49" gradientUnits="userSpaceOnUse"><stop offset="0.1" stop-color="#a1ce57"/><stop offset="0.95" stop-color="#009345"/></linearGradient><linearGradient id="linear-gradient-7" x1="752.22" y1="861.62" x2="825.59" y2="861.62" xlink:href="#linear-gradient-6"/><linearGradient id="linear-gradient-8" x1="819.41" y1="883.82" x2="865.94" y2="883.82" xlink:href="#linear-gradient-6"/><linearGradient id="linear-gradient-9" x1="851.66" y1="865.57" x2="922.01" y2="865.57" xlink:href="#linear-gradient-6"/><linearGradient id="linear-gradient-10" x1="56.1" y1="880.19" x2="103.47" y2="880.19" xlink:href="#linear-gradient-6"/><linearGradient id="linear-gradient-11" x1="24.03" y1="890.98" x2="59.41" y2="890.98" xlink:href="#linear-gradient-6"/><linearGradient id="linear-gradient-12" x1="593.54" y1="797.78" x2="747.7" y2="797.78" gradientUnits="userSpaceOnUse"><stop offset="0.25" stop-color="#00a99d"/><stop offset="1" stop-color="#1b1464"/></linearGradient><linearGradient id="linear-gradient-13" x1="716.49" y1="809.18" x2="819.89" y2="809.18" xlink:href="#linear-gradient-12"/><linearGradient id="linear-gradient-14" x1="796.51" y1="361.4" x2="815.01" y2="361.4" gradientUnits="userSpaceOnUse"><stop offset="0" stop-color="#ffd67b"/><stop offset="0.22" stop-color="#ffd279"/><stop offset="0.45" stop-color="#fdc574"/><stop offset="0.69" stop-color="#fbb06b"/><stop offset="0.93" stop-color="#f7945f"/><stop offset="1" stop-color="#f6895b"/></linearGradient><linearGradient id="linear-gradient-15" x1="739.23" y1="347.56" x2="757.26" y2="347.56" xlink:href="#linear-gradient-14"/><linearGradient id="linear-gradient-16" x1="747.98" y1="394.71" x2="793" y2="394.71" xlink:href="#linear-gradient-14"/><linearGradient id="linear-gradient-17" x1="868.48" y1="635.04" x2="910.9" y2="635.04" xlink:href="#linear-gradient-14"/><linearGradient id="linear-gradient-18" x1="286.64" y1="-1329.53" x2="510.88" y2="-1329.53" gradientTransform="translate(262.56 2125.39) rotate(24.58)" gradientUnits="userSpaceOnUse"><stop offset="0.1" stop-color="#009345"/><stop offset="0.95" stop-color="#006838"/></linearGradient><linearGradient id="linear-gradient-19" x1="296.32" y1="-1302.05" x2="447.23" y2="-1302.05" xlink:href="#linear-gradient-18"/><linearGradient id="linear-gradient-20" x1="322.07" y1="-1257.21" x2="377.55" y2="-1257.21" xlink:href="#linear-gradient-18"/><linearGradient id="linear-gradient-21" x1="617.91" y1="-211.91" x2="699.65" y2="-353.49" gradientTransform="translate(387.37 1082.52) rotate(11.21)" xlink:href="#linear-gradient-18"/><linearGradient id="linear-gradient-22" x1="655.76" y1="-235.63" x2="805.95" y2="-235.63" gradientTransform="translate(387.37 1082.52) rotate(11.21)" xlink:href="#linear-gradient-6"/><linearGradient id="linear-gradient-23" x1="339.65" y1="2447.14" x2="541.56" y2="2447.14" gradientTransform="translate(-190.99 -1094.1) rotate(-16.73)" xlink:href="#linear-gradient-6"/><linearGradient id="linear-gradient-24" x1="352.42" y1="2476.57" x2="493.8" y2="2476.57" gradientTransform="translate(-164.07 -1113.78) rotate(-17.1)" xlink:href="#linear-gradient-18"/><linearGradient id="linear-gradient-25" x1="483.54" y1="-138.12" x2="685.44" y2="-138.12" gradientTransform="translate(355.72 1086.77) rotate(11.58)" xlink:href="#linear-gradient-18"/><linearGradient id="linear-gradient-26" x1="514.37" y1="-108.38" x2="655.76" y2="-108.38" gradientTransform="translate(387.37 1082.52) rotate(11.21)" xlink:href="#linear-gradient-18"/><linearGradient id="linear-gradient-27" x1="403.83" y1="-744.93" x2="553.43" y2="-744.93" gradientTransform="translate(355.22 1597) rotate(17.65)" xlink:href="#linear-gradient-6"/><linearGradient id="linear-gradient-28" x1="962.94" y1="357.94" x2="1082.59" y2="150.71" gradientUnits="userSpaceOnUse"><stop offset="0.15" stop-color="#fcee21"/><stop offset="1" stop-color="#fff"/></linearGradient><linearGradient id="linear-gradient-29" x1="983.57" y1="322.21" x2="1061.96" y2="186.44" xlink:href="#linear-gradient-28"/></defs><title>version-mobile</title><g class="cls-1"><g id="Layer_1" data-name="Layer 1"><path class="cls-2" d="M-51.48,1079.12S496.71,1043.19,759.19,1405c378.39,521.63,663.62,710,821,185.2L1581.83-.55-85.34-2.24"/><path class="cls-3" d="M1334.05,563.26c-42.21-28.94-79.72-43.81-112.92-49,0-.22-.05-.46-.08-.68a3.31,3.31,0,0,0,0-.33c0-.44-.1-.86-.16-1.28,0-.1,0-.19,0-.29l-.18-1.29,0-.21-.21-1.34c-.33-1.95-.7-3.81-1.12-5.55v0c-.09-.36-.18-.71-.26-1.06,0-.1,0-.19-.08-.28l-.24-.93c0-.12-.07-.25-.11-.37q-.11-.44-.24-.84l-.12-.4c-.08-.27-.16-.53-.25-.78s-.09-.28-.13-.41-.16-.49-.25-.73-.1-.27-.15-.41l-.24-.67-.16-.4-.26-.63c0-.13-.11-.25-.16-.38l-.26-.59-.17-.34c-.3-.64-.62-1.24-.94-1.78l-.22-.37q-.12-.19-.24-.36c-.08-.12-.16-.25-.24-.36l-.24-.31a2.85,2.85,0,0,0-.25-.33c-.07-.1-.16-.18-.23-.28l-.26-.28a2.72,2.72,0,0,0-.24-.24,3.08,3.08,0,0,0-.27-.25,2.05,2.05,0,0,0-.23-.2l-.28-.22-.24-.16-.28-.17-.24-.12-.3-.13-.21-.08-.36-.08-.18,0a3.08,3.08,0,0,0-.53,0h0a3,3,0,0,0-.52,0l-.19.05-.34.1a1.89,1.89,0,0,0-.21.09,2.12,2.12,0,0,0-.31.14l-.21.13-.29.18-.23.17-.26.23-.23.21c-.09.08-.17.17-.26.26s-.15.16-.22.25l-.25.3-.22.29a4,4,0,0,0-.24.33l-.22.33c-.08.12-.15.24-.22.36l-.23.37c-.06.13-.13.26-.2.39-.3.56-.59,1.17-.87,1.82l-.15.35c-.08.19-.15.39-.23.6s-.1.26-.14.38-.17.43-.24.64-.09.27-.14.41l-.21.68c0,.14-.09.28-.13.42s-.15.48-.22.73l-.12.42-.21.79c0,.13-.07.27-.1.41l-.21.84c0,.13-.05.26-.08.38-.08.31-.14.62-.22.94,0,.09,0,.19,0,.29-.07.35-.15.7-.21,1.07l0,0q-.49,2.64-.85,5.6-.09.66-.15,1.35l0,.21-.12,1.29c0,.05,0,.09,0,.13a161.4,161.4,0,0,0-35.82,2.58l-.13-1.81-.16,0h0l-.15-2.17,0-.34c0-.68-.11-1.35-.17-2,0-.15,0-.31,0-.46-.06-.64-.13-1.28-.19-1.91,0-.17,0-.33,0-.5l-.21-1.86q0-.25-.06-.48c-.07-.63-.15-1.25-.23-1.86,0-.14,0-.27-.06-.42-.09-.62-.17-1.25-.26-1.86,0-.1,0-.2,0-.3-.1-.65-.2-1.31-.31-1.94-.47-2.84-1-5.53-1.6-8a.11.11,0,0,1,0-.05c-.13-.53-.25-1-.38-1.54,0-.14-.07-.28-.11-.41-.11-.46-.23-.9-.36-1.34a4.94,4.94,0,0,0-.15-.55c-.11-.41-.23-.81-.35-1.21,0-.2-.11-.39-.17-.59-.12-.37-.24-.74-.35-1.11l-.21-.61c-.11-.35-.23-.7-.35-1l-.21-.6c-.12-.33-.25-.65-.37-1s-.15-.39-.22-.58l-.37-.91-.24-.55c-.13-.29-.25-.58-.38-.86l-.23-.48c-.45-.93-.91-1.8-1.37-2.59-.11-.18-.22-.36-.32-.54l-.35-.52-.35-.51c-.11-.16-.22-.31-.34-.46l-.36-.47c-.11-.14-.23-.27-.34-.4l-.38-.42-.34-.35-.39-.36-.34-.29c-.13-.11-.27-.21-.4-.3l-.34-.24-.42-.25-.33-.17a4.22,4.22,0,0,0-.45-.18,2,2,0,0,0-.31-.12,4.54,4.54,0,0,0-.5-.12l-.27-.05a3.94,3.94,0,0,0-.77-.05h0a3.84,3.84,0,0,0-.76.08c-.09,0-.17,0-.27.06a4.58,4.58,0,0,0-.49.15,1.69,1.69,0,0,0-.31.13,4.28,4.28,0,0,0-.44.2l-.32.19-.41.26-.33.25-.39.33-.33.3-.36.38-.34.36-.35.44c-.11.14-.22.27-.32.41l-.35.49-.31.47c-.12.17-.22.35-.33.53s-.21.35-.32.53-.2.37-.29.56c-.44.81-.85,1.69-1.26,2.64-.07.17-.15.33-.21.5s-.23.58-.35.87l-.21.56-.33.92c-.07.2-.14.39-.2.6s-.21.65-.32,1-.13.4-.18.61-.22.7-.32,1.05l-.17.62-.3,1.13c-.06.19-.1.39-.15.59-.1.41-.2.81-.3,1.23-.05.18-.08.37-.13.55-.1.45-.2.89-.3,1.35,0,.14,0,.28-.08.42-.11.51-.21,1-.31,1.55a.11.11,0,0,0,0,.05q-.73,3.83-1.24,8.11c-.09.64-.16,1.29-.23,1.95,0,.1,0,.2,0,.3-.06.62-.12,1.25-.17,1.88,0,.14,0,.28,0,.42-.06.61-.11,1.23-.16,1.86l0,.48c-.05.62-.09,1.24-.13,1.88l0,.49c0,.64-.07,1.28-.11,1.92,0,.16,0,.31,0,.47,0,.67,0,1.34-.07,2,0,.12,0,.23,0,.34l-.06,2.19h0l-.16,0-.29,10.58c-19.79,8.2-37,19.86-52,32.81l-1.8-25-.23.06v0c-.06-1-.13-2.09-.21-3.13,0-.16,0-.33,0-.49l-.24-2.89-.06-.66q-.13-1.39-.27-2.76c0-.24,0-.48-.08-.71-.09-.91-.2-1.8-.3-2.69,0-.23-.06-.46-.08-.69-.11-.9-.23-1.79-.34-2.67,0-.2-.06-.39-.08-.59-.12-.9-.25-1.81-.39-2.7l-.06-.42c-.15-.94-.29-1.88-.44-2.79h0c-.68-4.07-1.45-7.94-2.31-11.56v-.07c-.19-.76-.36-1.49-.55-2.22l-.15-.59c-.17-.66-.34-1.29-.51-1.93-.08-.26-.15-.52-.22-.78l-.51-1.74c-.08-.29-.17-.56-.25-.85-.17-.54-.33-1.08-.51-1.61-.1-.29-.19-.58-.28-.87l-.51-1.49c-.11-.29-.21-.58-.31-.86-.18-.47-.35-.94-.53-1.4-.1-.28-.21-.56-.32-.84-.18-.43-.36-.88-.54-1.3s-.22-.53-.34-.8-.36-.83-.55-1.23c-.1-.23-.22-.46-.33-.7q-1-2-2-3.72c-.15-.26-.3-.53-.45-.77l-.5-.75-.49-.74-.49-.66c-.18-.23-.35-.46-.53-.67s-.32-.39-.49-.58l-.54-.61-.49-.49c-.19-.19-.38-.36-.56-.53l-.5-.41c-.19-.16-.38-.3-.57-.44l-.49-.34-.6-.36-.48-.25c-.22-.1-.43-.18-.65-.26l-.44-.17c-.24-.07-.49-.12-.73-.17l-.37-.08a5.92,5.92,0,0,0-1.11-.07h0a8,8,0,0,0-1.1.11l-.37.11a5.9,5.9,0,0,0-.72.2,4.17,4.17,0,0,0-.44.19c-.21.09-.42.18-.63.29s-.31.18-.47.27a5.87,5.87,0,0,0-.58.39c-.17.11-.32.23-.48.35l-.56.46-.47.44-.54.55c-.15.17-.31.34-.46.52s-.35.41-.52.63l-.46.59-.5.7-.46.68-.46.76-.46.77c-.14.25-.28.53-.43.8-.62,1.16-1.22,2.43-1.8,3.8-.11.24-.21.47-.31.71-.17.41-.33.84-.49,1.26s-.21.53-.31.81c-.16.43-.31.88-.47,1.33-.1.28-.2.56-.29.84-.16.47-.31.94-.46,1.42-.09.29-.18.58-.28.88-.14.49-.3,1-.44,1.51l-.24.89c-.16.53-.3,1.07-.44,1.63-.07.28-.15.56-.22.85-.14.58-.29,1.16-.42,1.76-.07.26-.13.53-.19.8-.14.63-.29,1.28-.43,1.94l-.12.6c-.15.74-.3,1.48-.45,2.24,0,0,0,.05,0,.07-.69,3.66-1.29,7.56-1.79,11.66h0c-.11.92-.21,1.86-.31,2.8,0,.15,0,.29-.05.44-.09.89-.18,1.8-.26,2.7l-.06.6c-.08.89-.15,1.78-.22,2.68,0,.23,0,.46,0,.69-.07.9-.13,1.79-.19,2.7,0,.24,0,.47,0,.71l-.15,2.77,0,.67c0,1-.08,1.92-.11,2.9,0,.16,0,.32,0,.49,0,1-.06,2.08-.08,3.13v0l-.23,0-2.23,79.69c-8.27,11.65-14.67,21.73-19.34,28.38l-43.36,3.09-1.68-23.35-.15,0h0c0-.66-.08-1.31-.14-2,0-.1,0-.2,0-.31l-.15-1.81c0-.14,0-.28,0-.42,0-.58-.11-1.16-.17-1.73,0-.16,0-.3,0-.45-.05-.56-.12-1.12-.18-1.68,0-.15,0-.3-.06-.43q-.11-.85-.21-1.68c0-.13,0-.25,0-.37l-.24-1.69c0-.09,0-.18-.05-.27-.08-.59-.17-1.18-.27-1.75-.42-2.56-.9-5-1.45-7.26v0c-.12-.47-.23-.93-.35-1.39l-.09-.37-.33-1.21c0-.16-.08-.33-.13-.49-.11-.37-.21-.73-.32-1.09-.05-.18-.1-.35-.16-.53-.1-.34-.21-.68-.32-1s-.12-.37-.18-.55-.21-.63-.32-.94-.13-.36-.19-.53l-.33-.89-.21-.52-.33-.82-.21-.5c-.12-.26-.23-.52-.35-.77l-.21-.44c-.4-.84-.81-1.62-1.24-2.33-.09-.17-.19-.33-.29-.49l-.31-.47c-.1-.15-.2-.31-.31-.46l-.31-.42a4.35,4.35,0,0,0-.33-.42l-.3-.36-.34-.38-.31-.31-.35-.33a3.88,3.88,0,0,0-.31-.26,4.39,4.39,0,0,0-.36-.28l-.31-.21-.38-.23-.29-.15a2.66,2.66,0,0,0-.41-.16l-.28-.11a3.43,3.43,0,0,0-.46-.11l-.23-.05a5.47,5.47,0,0,0-.69,0h0a5.4,5.4,0,0,0-.69.08l-.24.06a2.81,2.81,0,0,0-.45.13l-.27.12a2.76,2.76,0,0,0-.39.18l-.29.17c-.13.08-.26.15-.38.24l-.29.22-.36.3a3.76,3.76,0,0,0-.29.28c-.12.1-.22.22-.34.33l-.29.33c-.11.13-.21.26-.33.39l-.28.38c-.11.14-.21.29-.32.44l-.28.42-.3.48-.29.49c-.09.15-.17.32-.26.49-.4.73-.77,1.53-1.14,2.39l-.19.45-.31.78c-.06.17-.12.34-.19.51l-.3.83-.18.53c-.1.3-.19.6-.29.9s-.11.36-.16.54-.2.64-.29,1l-.15.55c-.09.34-.18.68-.28,1,0,.17-.08.35-.13.53q-.13.54-.27,1.11c0,.16-.07.33-.11.49-.09.41-.19.81-.27,1.22,0,.13-.06.25-.08.38-.09.46-.19.93-.28,1.4a.09.09,0,0,0,0,0q-.66,3.45-1.13,7.32c-.06.58-.13,1.16-.19,1.76,0,.09,0,.18,0,.27,0,.56-.11,1.13-.16,1.7l0,.37c0,.56-.1,1.12-.14,1.69,0,.14,0,.28,0,.43,0,.56-.08,1.13-.11,1.69l0,.45-.09,1.74c0,.13,0,.27,0,.41,0,.61,0,1.21-.07,1.82,0,.11,0,.21,0,.31,0,.65,0,1.31,0,2h0l-.15,0-.65,23.12c-9.76.4-19.24,1.16-28.42,2.2l-1-14.62-.1,0h0c0-.41,0-.81-.08-1.21a1.37,1.37,0,0,0,0-.19c0-.38-.06-.75-.09-1.12a2.29,2.29,0,0,1,0-.25c0-.37-.07-.72-.1-1.07,0-.1,0-.19,0-.28l-.12-1a2.6,2.6,0,0,1,0-.26c0-.35-.09-.7-.14-1a1.81,1.81,0,0,0,0-.23c0-.35-.09-.69-.14-1l0-.17c-.06-.37-.11-.73-.17-1.08-.26-1.58-.56-3.07-.89-4.48v0l-.21-.85-.06-.24c-.06-.25-.12-.49-.19-.74s-.06-.2-.09-.3l-.2-.68c0-.11-.06-.21-.1-.32s-.12-.42-.19-.63l-.11-.33c-.07-.2-.13-.39-.2-.58s-.08-.22-.12-.33-.13-.37-.2-.55-.08-.21-.13-.32-.13-.34-.2-.5-.09-.21-.14-.31-.13-.32-.21-.48-.08-.18-.13-.27c-.25-.52-.5-1-.76-1.44l-.18-.29c-.06-.1-.12-.2-.19-.3l-.2-.28-.18-.26-.21-.26a2,2,0,0,0-.19-.22,2.25,2.25,0,0,0-.21-.24l-.18-.19-.22-.2-.19-.16a1.63,1.63,0,0,0-.22-.17l-.19-.13-.24-.14-.18-.1a1.25,1.25,0,0,0-.25-.09l-.17-.08-.28-.06-.15,0-.43,0h0a2,2,0,0,0-.43,0l-.14,0-.28.08-.18.08a1.66,1.66,0,0,0-.24.11l-.18.11c-.07.05-.15.09-.22.15a1.27,1.27,0,0,0-.19.13c-.07.06-.14.11-.21.18a1.54,1.54,0,0,0-.19.17l-.2.21c-.06.07-.13.13-.18.2l-.21.24c-.05.08-.12.15-.17.24a1.85,1.85,0,0,0-.19.27l-.18.26-.18.29-.18.3a3,3,0,0,0-.16.31c-.25.45-.48.94-.71,1.47a2.33,2.33,0,0,0-.11.28c-.07.15-.13.32-.19.48a2.45,2.45,0,0,0-.12.31c-.06.17-.12.34-.19.52s-.07.21-.11.32-.11.37-.18.56-.07.22-.1.33-.12.39-.17.59-.06.23-.1.34-.12.42-.17.63,0,.22-.08.34-.11.44-.16.67-.06.21-.08.31-.11.5-.16.75c0,.08,0,.16,0,.24l-.18.86a0,0,0,0,1,0,0c-.27,1.42-.49,2.93-.69,4.51,0,.36-.08.72-.12,1.09a1.11,1.11,0,0,1,0,.17c0,.34-.07.69-.1,1,0,.08,0,.15,0,.23l-.09,1a2.45,2.45,0,0,1,0,.27l-.06,1a2.46,2.46,0,0,0,0,.28l-.06,1.07c0,.09,0,.17,0,.26,0,.37,0,.74,0,1.11v.2c0,.4,0,.8,0,1.21h0l-.09,0-.47,16.86a362.56,362.56,0,0,0-45.79,10.57A154.43,154.43,0,0,0,798.48,678C715.92,716.53,678,774.5,678,774.5,557.21,786.57,459.57,923.25,459.57,923.25h906Z"/><path class="cls-4" d="M1231.89,729.93C1189.68,701,1152.18,686.12,1119,681c0-.23,0-.46-.08-.69s0-.23,0-.33c0-.43-.11-.86-.16-1.28a2.89,2.89,0,0,1,0-.29c-.07-.43-.12-.86-.19-1.29a1.5,1.5,0,0,1,0-.2c-.08-.46-.15-.91-.22-1.35-.32-1.95-.7-3.81-1.11-5.55a.08.08,0,0,0,0,0c-.08-.36-.17-.71-.25-1.06,0-.09-.06-.19-.08-.28-.08-.32-.16-.62-.24-.93,0-.12-.07-.25-.11-.37l-.24-.84c0-.13-.08-.27-.13-.4s-.16-.52-.24-.77-.09-.29-.13-.42l-.25-.72a3.91,3.91,0,0,0-.15-.41c-.08-.23-.17-.46-.25-.68s-.1-.26-.16-.4l-.25-.63-.17-.38c-.08-.2-.17-.4-.25-.59l-.17-.34c-.31-.64-.62-1.23-1-1.78-.07-.12-.14-.25-.22-.37s-.16-.24-.23-.36l-.25-.36a3.55,3.55,0,0,0-.23-.31,2.85,2.85,0,0,0-.25-.33l-.24-.27a2.43,2.43,0,0,0-.26-.29,2.61,2.61,0,0,0-.23-.24l-.27-.25-.24-.2a1.86,1.86,0,0,0-.28-.21l-.23-.17-.29-.17-.23-.12a2,2,0,0,0-.31-.12l-.21-.09-.35-.08-.18,0a3.14,3.14,0,0,0-.53,0h0a4.75,4.75,0,0,0-.53,0l-.18,0-.34.1-.21.09-.31.14-.22.13-.28.19-.23.17-.27.22-.23.21-.26.26c-.07.09-.15.17-.22.25l-.24.3-.23.29-.23.33-.22.33c-.08.12-.15.25-.23.36l-.22.38c-.07.12-.14.25-.2.38-.3.56-.59,1.17-.88,1.82,0,.12-.09.23-.14.35s-.16.4-.23.6l-.15.38c-.08.22-.16.43-.23.64s-.1.27-.14.41-.15.46-.22.69-.08.27-.13.41l-.21.73-.12.43c-.08.25-.14.51-.21.78s-.07.27-.11.41-.14.56-.2.85l-.09.37-.21.94c0,.09,0,.19-.06.29l-.21,1.07a.08.08,0,0,1,0,0c-.33,1.75-.62,3.62-.86,5.59l-.15,1.35c0,.07,0,.14,0,.21,0,.43-.09.86-.12,1.3,0,0,0,.08,0,.12a160.79,160.79,0,0,0-35.82,2.59l-.13-1.82-.16,0h0c0-.74-.1-1.46-.16-2.18,0-.11,0-.23,0-.34,0-.68-.1-1.35-.17-2l0-.47c-.06-.64-.13-1.28-.19-1.91,0-.17,0-.33,0-.5l-.21-1.86-.06-.48c-.08-.63-.15-1.25-.24-1.86,0-.14,0-.27,0-.41l-.27-1.87c0-.1,0-.2,0-.3-.1-.65-.2-1.3-.31-1.94-.47-2.83-1-5.52-1.6-8l0-.05c-.12-.53-.25-1-.37-1.54,0-.14-.07-.28-.11-.41-.11-.46-.24-.9-.36-1.34l-.15-.55c-.11-.41-.23-.81-.35-1.21l-.18-.58c-.11-.38-.23-.75-.34-1.12-.08-.21-.14-.41-.21-.61-.12-.35-.24-.69-.35-1-.07-.2-.14-.4-.22-.6l-.36-1-.23-.58c-.12-.3-.24-.61-.37-.91s-.15-.36-.23-.55-.26-.58-.38-.85-.15-.33-.24-.49c-.44-.93-.9-1.8-1.37-2.59l-.32-.54c-.11-.18-.23-.34-.35-.51l-.34-.52c-.11-.16-.23-.3-.34-.46s-.24-.32-.37-.47-.23-.26-.33-.4l-.38-.42-.35-.34c-.12-.13-.25-.25-.38-.37l-.35-.29c-.13-.11-.26-.2-.4-.3l-.33-.23-.42-.25-.33-.18-.45-.18-.31-.12-.51-.12-.27,0a3.83,3.83,0,0,0-.76,0h0a3.92,3.92,0,0,0-.76.08,2.5,2.5,0,0,0-.26.07c-.16,0-.33.08-.5.14l-.3.13-.44.2-.32.19c-.14.09-.28.17-.41.27a3.59,3.59,0,0,0-.33.25c-.13.1-.26.2-.39.32l-.33.3-.37.38-.33.36c-.11.15-.23.29-.36.44s-.21.27-.32.41l-.34.49c-.1.16-.21.31-.32.47s-.21.36-.32.53-.22.35-.32.53l-.3.56c-.43.81-.85,1.69-1.25,2.64-.08.17-.15.33-.22.5l-.34.87-.21.56c-.11.3-.23.62-.33.93s-.14.38-.2.59-.21.65-.32,1-.13.41-.19.61-.21.7-.31,1.06c-.06.2-.11.4-.17.61-.11.37-.21.75-.31,1.13l-.15.59c-.1.41-.2.81-.29,1.23,0,.18-.09.37-.13.55-.1.45-.2.89-.3,1.36,0,.13-.06.27-.08.41-.11.51-.22,1-.32,1.55v.06c-.49,2.54-.91,5.25-1.25,8.1-.08.64-.15,1.3-.22,2,0,.1,0,.2,0,.3l-.18,1.88c0,.14,0,.28,0,.42q-.07.91-.15,1.86c0,.16,0,.32,0,.48,0,.62-.08,1.25-.13,1.88,0,.16,0,.32,0,.49,0,.64-.07,1.28-.1,1.93,0,.15,0,.3,0,.46,0,.67-.06,1.34-.08,2,0,.12,0,.23,0,.35l-.06,2.18h0l-.16,0-.29,10.58c-19.8,8.2-37,19.87-51.95,32.81l-1.8-25-.24.06v0c-.07-1.05-.14-2.09-.22-3.12l0-.5c-.08-1-.16-1.93-.25-2.89,0-.22,0-.44,0-.66-.09-.93-.18-1.85-.28-2.76,0-.24,0-.48-.08-.71-.09-.91-.19-1.8-.29-2.69l-.09-.69c-.11-.9-.22-1.78-.33-2.67l-.09-.59c-.12-.9-.25-1.8-.38-2.69l-.06-.43c-.15-.94-.29-1.87-.45-2.79h0c-.67-4.08-1.44-7.95-2.3-11.57,0,0,0-.05,0-.07-.18-.76-.36-1.49-.55-2.22,0-.2-.09-.4-.14-.59-.17-.66-.35-1.29-.52-1.92l-.21-.79q-.25-.88-.51-1.74c-.08-.28-.17-.56-.26-.84-.16-.55-.33-1.09-.5-1.62-.1-.29-.19-.58-.29-.86-.17-.51-.33-1-.51-1.5-.1-.29-.21-.58-.31-.86-.18-.47-.34-.94-.52-1.4l-.33-.83c-.18-.44-.35-.89-.53-1.31-.11-.27-.23-.53-.34-.79-.18-.42-.37-.84-.55-1.24l-.33-.7c-.65-1.34-1.3-2.58-2-3.71-.15-.27-.31-.53-.46-.78s-.32-.5-.49-.75-.33-.5-.5-.74l-.49-.66-.52-.67-.5-.58c-.17-.2-.36-.41-.54-.6s-.32-.34-.49-.5l-.56-.53-.49-.41c-.19-.16-.38-.3-.57-.44l-.5-.34c-.19-.13-.4-.24-.6-.35l-.47-.25a6.92,6.92,0,0,0-.65-.27l-.45-.17c-.23-.07-.48-.12-.72-.17l-.38-.08a6.83,6.83,0,0,0-1.11-.07h0a6.73,6.73,0,0,0-1.09.12c-.13,0-.25.07-.38.1s-.48.12-.72.2a4,4,0,0,0-.43.19c-.22.09-.43.18-.64.29l-.47.27c-.19.13-.39.25-.58.39l-.48.35-.55.47c-.15.14-.32.28-.47.43s-.36.36-.54.55l-.47.52-.51.63-.47.6-.49.69-.46.68-.47.76-.45.77c-.15.26-.29.53-.43.8-.62,1.16-1.23,2.43-1.8,3.8l-.32.72c-.16.4-.32.83-.48,1.25s-.21.53-.31.81-.32.88-.48,1.33c-.1.28-.19.56-.29.85-.15.46-.3.94-.46,1.41-.09.29-.17.58-.27.88-.15.5-.3,1-.44,1.52-.09.29-.17.58-.25.88-.15.53-.29,1.07-.43,1.63-.08.28-.15.57-.22.85-.15.58-.29,1.17-.43,1.76l-.18.8c-.15.64-.29,1.28-.43,1.94,0,.19-.09.4-.12.6-.16.74-.31,1.48-.46,2.24a.17.17,0,0,1,0,.07c-.69,3.66-1.3,7.56-1.79,11.66h0c-.11.92-.22,1.86-.32,2.81,0,.14,0,.29,0,.43-.1.89-.18,1.8-.27,2.71,0,.2,0,.39,0,.59-.08.89-.16,1.78-.23,2.68,0,.23,0,.46,0,.7-.06.89-.12,1.78-.18,2.7,0,.23,0,.46,0,.7-.06.92-.11,1.84-.15,2.78l0,.66c-.05,1-.08,1.92-.12,2.9,0,.16,0,.33,0,.49l-.09,3.13v0l-.23-.05-2.22,79.69c-8.28,11.65-14.67,21.73-19.34,28.39L867.06,811l-1.68-23.35-.15,0v0c0-.66-.08-1.31-.13-2l0-.31c0-.61-.09-1.21-.15-1.81,0-.14,0-.28,0-.42,0-.58-.1-1.16-.16-1.73,0-.15,0-.29-.05-.44-.06-.57-.12-1.13-.19-1.69,0-.15,0-.29-.05-.43-.07-.57-.14-1.12-.22-1.68,0-.12,0-.25,0-.37-.08-.57-.16-1.13-.25-1.69,0-.09,0-.18,0-.27-.09-.59-.18-1.18-.28-1.75q-.63-3.84-1.44-7.26s0,0,0-.05c-.11-.47-.23-.93-.34-1.39,0-.12-.06-.25-.1-.37-.11-.41-.21-.81-.32-1.2l-.14-.5c-.1-.37-.21-.73-.32-1.09,0-.18-.1-.35-.16-.53-.1-.34-.21-.68-.31-1-.06-.18-.12-.37-.18-.54s-.22-.64-.32-.95-.14-.36-.2-.53-.21-.6-.32-.89l-.21-.52-.33-.82c-.07-.17-.15-.33-.22-.49s-.22-.53-.34-.78l-.21-.44c-.41-.84-.82-1.62-1.24-2.33-.1-.17-.19-.33-.29-.48s-.21-.32-.31-.48L856,750l-.31-.42c-.11-.14-.21-.28-.33-.42s-.21-.24-.3-.36-.22-.25-.35-.38l-.3-.31-.35-.32a3.82,3.82,0,0,0-.32-.27c-.11-.1-.24-.19-.35-.28l-.31-.21-.38-.22-.3-.16-.41-.16-.27-.11a4.35,4.35,0,0,0-.46-.11l-.24,0a3.94,3.94,0,0,0-.69,0h0a4,4,0,0,0-.69.07l-.24.06-.45.13-.27.12a2.87,2.87,0,0,0-.4.18l-.29.17-.37.25a2.86,2.86,0,0,0-.3.22c-.11.09-.23.18-.35.29a3.83,3.83,0,0,0-.29.28l-.34.34c-.1.1-.2.21-.29.32s-.22.26-.33.4-.19.24-.28.37-.21.29-.32.44l-.29.43-.29.47-.29.49-.27.5c-.39.73-.76,1.52-1.13,2.38-.07.15-.13.3-.19.45s-.21.52-.31.79-.13.33-.19.5-.2.55-.3.83l-.18.54c-.1.29-.19.59-.29.89s-.11.36-.17.55-.19.63-.28.95l-.15.56c-.09.33-.19.67-.28,1l-.14.53c-.08.37-.17.74-.26,1.11l-.12.5c-.08.4-.18.8-.27,1.22,0,.12-.05.24-.07.37-.1.47-.19.93-.29,1.4v.05c-.45,2.3-.82,4.75-1.13,7.32-.07.58-.13,1.17-.2,1.76l0,.27c-.06.56-.11,1.13-.16,1.7,0,.12,0,.25,0,.38,0,.55-.09,1.11-.14,1.68l0,.43c0,.56-.08,1.13-.11,1.7l0,.44c0,.57-.07,1.16-.09,1.74,0,.14,0,.27,0,.42,0,.6-.06,1.2-.08,1.81,0,.11,0,.21,0,.31,0,.66,0,1.31,0,2h0l-.15,0-.64,23.12q-14.65.61-28.43,2.2l-1-14.62-.09,0h0c0-.4-.05-.8-.08-1.21,0-.06,0-.12,0-.19,0-.37-.06-.75-.09-1.11,0-.1,0-.18,0-.26,0-.36-.06-.72-.1-1.07l0-.28c0-.34-.07-.69-.12-1l0-.27c0-.35-.09-.69-.13-1l0-.22c0-.35-.09-.7-.14-1a.55.55,0,0,1,0-.17c-.06-.37-.11-.73-.18-1.08-.25-1.58-.55-3.07-.89-4.48v0l-.21-.85-.06-.23c-.07-.26-.13-.5-.2-.75s-.05-.2-.08-.3-.13-.45-.2-.67-.06-.22-.1-.33-.13-.42-.2-.62-.07-.23-.1-.34-.14-.39-.2-.58-.08-.22-.12-.33l-.2-.54c0-.11-.09-.22-.13-.33l-.21-.5a2.88,2.88,0,0,0-.13-.31l-.21-.47c0-.1-.09-.18-.13-.28-.25-.52-.51-1-.76-1.44l-.18-.29-.19-.29c-.07-.1-.13-.2-.2-.29l-.18-.25-.21-.27-.19-.22-.21-.23-.18-.2a2.09,2.09,0,0,1-.22-.2l-.2-.16a1.84,1.84,0,0,0-.22-.17l-.18-.13-.24-.14-.18-.09a1.18,1.18,0,0,0-.25-.1l-.18-.07-.28-.07-.15,0-.42,0h0a3.15,3.15,0,0,0-.43,0l-.14,0-.28.09-.17.07-.24.11-.18.11a1.82,1.82,0,0,0-.23.15l-.19.13-.21.18-.18.17-.21.21-.18.2-.2.25-.18.23-.19.27c-.06.09-.12.17-.17.26a2.38,2.38,0,0,0-.18.3c-.07.09-.12.19-.19.3l-.16.3a15.46,15.46,0,0,0-.7,1.47l-.12.28c-.06.16-.12.32-.19.48l-.12.31-.18.52c0,.11-.08.21-.12.33s-.11.36-.17.55l-.11.33c0,.2-.11.4-.16.6s-.07.22-.1.33-.12.42-.17.64-.05.21-.09.33-.11.45-.16.67-.05.21-.07.31c-.06.25-.11.5-.17.76,0,.07,0,.15-.05.23-.06.28-.11.57-.17.86a0,0,0,0,1,0,0c-.27,1.42-.5,2.93-.69,4.51l-.12,1.09c0,.05,0,.11,0,.17,0,.34-.07.69-.1,1a1.94,1.94,0,0,0,0,.24l-.09,1c0,.09,0,.18,0,.27,0,.34,0,.7-.07,1,0,.1,0,.19,0,.28,0,.35,0,.71-.05,1.07a2.26,2.26,0,0,0,0,.26c0,.37,0,.74,0,1.12,0,.07,0,.13,0,.19,0,.4,0,.8,0,1.21h0l-.09,0L789,816.18a364.54,364.54,0,0,0-45.78,10.57,154.33,154.33,0,0,0-46.9,17.87c-82.56,38.58-120.54,96.55-120.54,96.55-120.73,12.07-218.37,148.75-218.37,148.75h905.95Z"/><rect class="cls-5" x="337.95" y="919.57" width="1069.24" height="282.92"/><path class="cls-6" d="M1273.86,1391.77H921.79a68.35,68.35,0,1,1,0-136.7h310.62a68.34,68.34,0,1,0,0-136.67H1073.66a68.35,68.35,0,1,1,0-136.7H1449.9A68.35,68.35,0,0,0,1423,850.53H528.26A68.34,68.34,0,0,0,501.34,981.7H667.69a68.35,68.35,0,0,1,0,136.7H-159.39a68.34,68.34,0,0,0-68.35,68.33,68.36,68.36,0,0,0,68.35,68.34H481.29a68.35,68.35,0,0,1,0,136.7H379.1a68.36,68.36,0,1,0,0,136.72h894.76a68.36,68.36,0,0,0,0-136.72Z"/><path class="cls-7" d="M-190.08,953.57H80.07a52.45,52.45,0,1,1,0,104.89H-158.27a52.46,52.46,0,0,0-52.47,52.44,52.44,52.44,0,0,0,52.47,52.42H-36.46A52.42,52.42,0,0,1,16,1215.78a52.4,52.4,0,0,1-52.44,52.43H-325.15a52.5,52.5,0,0,0-31.78,48.22,52.41,52.41,0,0,0,52.42,52.43H382a52.44,52.44,0,0,0,20.65-100.65H275.05a52.45,52.45,0,0,1,0-104.89H909.68a52.43,52.43,0,1,0,0-104.86H418.08a52.45,52.45,0,1,1,0-104.89h78.41a52.46,52.46,0,0,0,0-104.91H-190.08a52.44,52.44,0,0,0-52.44,52.44A52.45,52.45,0,0,0-190.08,953.57Z"/><polygon class="cls-5" points="454.92 471.15 380.75 605.99 453.34 606.84 454.92 471.15"/><polygon class="cls-8" points="529.6 607.72 457.06 467.27 454.92 471.15 453.34 606.84 529.6 607.72"/><polygon class="cls-9" points="380.75 605.99 206.85 922.14 449.66 922.96 453.34 606.84 380.75 605.99"/><polygon class="cls-10" points="529.6 607.72 453.34 606.84 449.66 922.96 692.82 923.78 529.6 607.72"/><polygon class="cls-5" points="240.79 630.23 192.97 717.17 239.77 717.71 240.79 630.23"/><polygon class="cls-8" points="288.94 718.28 242.17 627.72 240.79 630.23 239.77 717.71 288.94 718.28"/><polygon class="cls-9" points="192.97 717.17 80.84 921.02 237.4 921.55 239.77 717.71 192.97 717.17"/><polygon class="cls-10" points="288.94 718.28 239.77 717.71 237.4 921.55 394.19 922.08 288.94 718.28"/><polygon class="cls-11" points="744.98 874.71 762.58 874.76 737.87 826.93 756.33 826.99 735.55 786.75 726.32 768.87 726.05 769.36 716.6 786.53 694.46 826.78 714.43 826.85 688.22 874.52 707.38 874.58 680.31 923.8 725.37 923.95 770.48 924.1 744.98 874.71"/><polygon class="cls-12" points="804.84 884.58 819.16 884.63 799.06 845.71 814.08 845.76 797.17 813.02 789.66 798.47 789.44 798.87 781.75 812.83 763.73 845.59 779.99 845.64 758.65 884.43 774.25 884.48 752.22 924.53 788.88 924.65 825.59 924.77 804.84 884.58"/><polygon class="cls-13" points="852.77 898.39 861.86 898.42 849.11 873.73 858.64 873.76 847.91 853 843.15 843.77 843.01 844.02 838.13 852.88 826.71 873.65 837.01 873.69 823.49 898.29 833.38 898.33 819.4 923.72 842.66 923.8 865.94 923.88 852.77 898.39"/><polygon class="cls-14" points="902.11 887.58 915.85 887.63 896.57 850.31 910.98 850.36 894.76 818.97 887.56 805.01 887.34 805.4 879.98 818.79 862.7 850.19 878.29 850.25 857.83 887.43 872.79 887.49 851.66 925.88 886.82 926 922.01 926.12 902.11 887.58"/><polygon class="cls-15" points="90.07 895.02 99.31 895.05 86.33 869.92 96.03 869.95 85.12 848.82 80.27 839.42 80.12 839.68 75.16 848.7 63.53 869.85 74.03 869.88 60.25 894.92 70.32 894.95 56.1 920.81 79.77 920.88 103.47 920.97 90.07 895.02"/><polygon class="cls-16" points="49.4 902.05 56.31 902.07 46.61 883.3 53.86 883.33 45.7 867.54 42.08 860.52 41.98 860.72 38.27 867.45 29.58 883.25 37.42 883.27 27.13 901.97 34.65 902 24.03 921.31 41.71 921.37 59.41 921.43 49.4 902.05"/><rect class="cls-17" x="-508.34" y="98.06" width="1598.93" height="1056.42"/><text class="cls-18" transform="translate(-431.26 396.99)">Explo<tspan class="cls-19" x="248.64" y="0">r</tspan><tspan x="289.56" y="0">e</tspan><tspan x="0" y="89.43">the</tspan><tspan class="cls-20" x="145.76" y="89.43"> </tspan><tspan class="cls-21" x="163.06" y="89.43">W</tspan><tspan class="cls-22" x="253.01" y="89.43">orld</tspan></text><polygon class="cls-23" points="601.06 961.23 631.52 970.67 627.66 997 635.57 1015.69 656.41 1028.63 656.41 1033.66 616.7 1031.86 579.49 1003.47 601.06 961.23"/><rect class="cls-24" x="684.17" y="830.56" width="392.63" height="5.85" transform="matrix(0.07, -1, 1, 0.07, -11.86, 1654.27)"/><path class="cls-25" d="M747.7,671.7s-36.81,146.45-48,153.65-62.94,149.72-62.94,149.72l-43.21-15.79s64.53-153.14,63.73-159.53,11.2-172.06,11.2-172.06l77.63-7.21"/><path class="cls-26" d="M798.12,632.49s32,150.45,18.41,192.06S796.31,983.8,796.31,983.8l-38.65,2.08s21.25-169.33,14.05-191.74-55.22-157.65-55.22-157.65"/><path class="cls-27" d="M816.69,535.84l-8.63,55A23.53,23.53,0,0,1,811.3,607c-1.62,9.17-7,31.28-7,31.28L668.42,634l37.2-208.65s44-20.38,72.09-11.22,42.22,17.15,41.67,39.25S816.69,535.84,816.69,535.84Z"/><rect class="cls-24" x="739.38" y="564.56" width="80.19" height="22.02"/><path class="cls-28" d="M733.66,453.88s51.46-35.05,79-22.65c0,0-3.27-5.14-7.48-7.79a26,26,0,0,0-9.5-3.27s-25.85.29-61.43,13.77"/><polyline class="cls-28" points="778.41 517.5 730.42 549.85 722.88 583.28 784.34 533.68"/><path class="cls-24" d="M754.86,459.81v-21s4.86-15.1-14-23.19-96.65-17.43-96.65-17.43L623.35,613.11S636.79,632.34,654,635s79.26,0,79.26,0,12.4-11.86,14-26.42S754.86,459.81,754.86,459.81Z"/><path class="cls-29" d="M814.37,364c-1.86,6.17-7.23,10-12,8.57s-7.1-7.6-5.24-13.77,7.23-10,12-8.57S816.23,357.83,814.37,364Z"/><path class="cls-30" d="M757.21,348.33c-.56,6.42-5,11.28-10,10.85s-8.51-6-8-12.39,5-11.28,10-10.85S757.76,341.91,757.21,348.33Z"/><polyline class="cls-31" points="753.64 378.67 747.98 401.85 788.15 410.75 793 381.37"/><path class="cls-32" d="M720.54,417s23.36-2.52,32-1.8l-18.69-10.06s-30.2,1.08-38.11,4.31"/><polygon class="cls-33" points="746.78 395.47 794.38 401.78 790.18 418.76 739.95 419.2 746.78 395.47"/><path class="cls-34" d="M734.74,459.81v-21s4.85-15.1-14-23.19-96.65-17.43-96.65-17.43L605.79,586.61l122.44,7.2C730.53,555.08,734.74,459.81,734.74,459.81Z"/><path class="cls-35" d="M605.79,586.61l-2.57,26.5s13.44,19.23,30.69,21.93,79.26,0,79.26,0,12.4-11.86,14-26.42c.26-2.3.63-7.56,1.05-14.81Z"/><path class="cls-33" d="M802.94,429.75s-35.32-.84-28.85,62.41,30.2,118.62,95.62,144.5l15.09-16.53s-77.64-46-66.13-122.21S805.1,430.57,802.94,429.75Z"/><path class="cls-34" d="M722.65,558.44a16.45,16.45,0,0,1-17.82,14.95h0a16.45,16.45,0,0,1-15-17.81l5.72-65.53a16.45,16.45,0,0,1,17.82-14.95h0a16.44,16.44,0,0,1,15,17.81Z"/><path class="cls-23" d="M811.87,331.49s-14.29,54.73-15.9,54.73-48.8-9.71-48.8-9.71L755.26,311S811.87,298.06,811.87,331.49Z"/><path class="cls-35" d="M816.73,331.67s-12.58-48.16-62.55-49.24c0,0-4.67,2.16-2.51,10.78s-3.59,30.92-3.59,30.92Z"/><rect class="cls-36" x="769.47" y="296.07" width="23.18" height="75.21" transform="translate(328.55 1052.44) rotate(-80.94)"/><path class="cls-37" d="M910.9,635a21.21,21.21,0,1,1-21.21-21.21A21.21,21.21,0,0,1,910.9,635Z"/><path class="cls-35" d="M756,384.08V384l-.47-.05a22.87,22.87,0,0,0-6.93-.63L626.75,372.27a22.81,22.81,0,0,0-9.23-.76c-13.59,1.68-23.11,15.14-21.27,30.06,1.74,14.1,13,24.46,25.71,24.14l129.25,12.12,0-.16a21.72,21.72,0,0,0,2.66-.17c13.59-1.68,23.12-15.14,21.27-30.06C773.73,395.81,765.81,386.73,756,384.08Z"/><path class="cls-36" d="M770.29,411.17c.43,11-7.37,20.31-17.43,20.7s-18.57-8.24-19-19.28,7.38-20.31,17.43-20.7S769.86,400.13,770.29,411.17Z"/><polygon class="cls-38" points="622.63 549.13 684.45 554.52 692.72 490.18 681.22 488.03 624.96 487.31 616.88 549.58 622.63 549.13"/><path class="cls-23" d="M791.56,983.93l1,12.59,23.16,16.68s29,5.91,29,12.43l1,7.53-88.83.5L760.45,985Z"/><path class="cls-28" d="M714.24,380.28l-17.71,90.53-13.87-2.34s10.87-85.3,15.72-90.25C705.72,370.72,714.24,380.28,714.24,380.28Z"/><path class="cls-28" d="M669.78,376.13l-17.71,90.52-13.86-2.34s10.86-85.29,15.71-90.24C661.27,366.57,669.78,376.13,669.78,376.13Z"/><polygon class="cls-5" points="629.64 481.74 682.83 483.36 677.8 499.53 626.54 495.4 629.64 481.74"/><g class="cls-39"><path class="cls-40" d="M1029.71,1137.13s103.11-128.1,129.69-139,50.74-10.66,50.84,15.68,3.51,33.61,19.45,16.47,72.42-34.48,84.12,1.9-28.27,44.09-44.8,47.82-40,7.82-27.13,15.06,28.44,14.5,17.28,24.17-42.5-7.37-65-8.24-31.59,7.14-18.11,16,20,38.84-.9,37.37-124.2-17.51-124.2-17.51Z"/><path class="cls-41" d="M1046.35,1135.33c2.54-1.79,5.8-3.68,9.46-6s8-4.62,12.62-7.23,9.83-5.15,15.26-7.92,11.29-5.47,17.3-8.3l1.72-.78c.94-2,2.34-5,4.2-8.5s3.87-7.27,6.25-11.38c1.2-2,2.37-4.19,3.7-6.29l3.93-6.43,4.08-6.35c1.33-2.1,2.75-4.1,4.06-6.07,2.67-3.92,5.24-7.53,7.52-10.57,4.52-6.11,7.9-10,7.9-10s-2,4.71-5.53,11.45c-1.74,3.37-3.87,7.25-6.24,11.36-1.2,2.05-2.39,4.19-3.69,6.3s-2.62,4.28-3.94,6.44l-4.08,6.33c-1.32,2.11-2.75,4.11-4.06,6.08-2.66,3.93-5.23,7.53-7.51,10.58-1.84,2.47-3.46,4.55-4.77,6.17q7.42-3.39,15.17-6.79l19.49-8.27c13.13-5.33,26.3-10.58,38.76-15.22s24.11-8.87,34.18-12.31,18.49-6.15,24.38-8.09,9.32-2.88,9.32-2.88l-9,3.77-23.73,9.82c-14.49,5.92-32.55,13.31-51.55,21.06l.69,0c2.78-.18,6-.27,9.49-.26s7.16.09,10.85.28,7.37.5,10.81.87,6.66.79,9.41,1.26a91.48,91.48,0,0,1,9.15,1.88,88.34,88.34,0,0,1-9.29.91c-2.79.18-6,.27-9.49.26s-7.17-.08-10.86-.28-7.37-.49-10.81-.86-6.66-.79-9.41-1.25c-1.94-.31-3.64-.64-5-.93l-16,6.54-19.49,8.09-18.81,8c-6,2.72-12,5.11-17.5,7.66s-10.82,4.76-15.55,7.12l-6.86,3.29c-2.21,1-4.26,2-6.15,3-3.79,2-7.19,3.66-9.84,5.23-5.27,3.22-8.35,5-8.35,5S1041.31,1139,1046.35,1135.33Z"/><path class="cls-42" d="M1130.35,1135.66a82.5,82.5,0,0,1-8.78-1.19c-2.61-.45-5.61-1.09-8.8-1.87s-6.58-1.68-9.93-2.69-6.67-2.13-9.75-3.25-5.95-2.25-8.37-3.32a81.84,81.84,0,0,1-8-3.87,80.92,80.92,0,0,1,8.79,1.18c2.6.46,5.61,1.09,8.79,1.87s6.58,1.68,9.93,2.7,6.67,2.13,9.75,3.25,6,2.26,8.37,3.32A80.4,80.4,0,0,1,1130.35,1135.66Z"/><path class="cls-43" d="M1116.68,973.35c-1.83-2.73-11.5.55-21.61,7.31-5.87,3.93-10.59,8.18-13.16,11.58l4.9-24.74c2.74,1.52,11.23-1.56,20.14-7.53,9.74-6.52,16.22-13.93,14.46-16.56s-11.09.53-20.83,7c-5.62,3.77-10.1,7.82-12.59,11.08l4.92-24.82c2.73,1.35,10.83-1.63,19.31-7.31,9.38-6.27,15.61-13.41,13.91-15.94s-10.66.51-20,6.78a53.55,53.55,0,0,0-12,10.52l4.93-24.85c2.7,1.19,10.41-1.67,18.48-7.07,9-6,15-12.88,13.37-15.31s-10.26.48-19.26,6.51a51.58,51.58,0,0,0-11.42,10l3.63-18.31c3.07-2.37,5.92-9.94,7.46-17.71,1.93-9.75,1.84-20-2.06-20.79s-7.89,8.69-9.83,18.44c-1.53,7.76-1.79,15.85.15,19.21l-3.63,18.32a51.37,51.37,0,0,0-6.76-13.56c-6-9-12.89-15-15.32-13.37s.49,10.25,6.52,19.26c5.39,8.06,11.43,13.65,14.39,13.58l-4.93,24.85a53.22,53.22,0,0,0-7.09-14.3c-6.27-9.37-13.41-15.6-15.93-13.9s.5,10.65,6.77,20c5.68,8.49,12,14.33,15.07,14.12l-4.91,24.82c-1.06-4-3.65-9.41-7.42-15-6.52-9.74-13.94-16.21-16.56-14.45s.52,11.08,7,20.82c6,8.91,12.63,15,15.75,14.64l-4.9,24.74c-1.08-4.13-3.82-9.85-7.75-15.72-6.77-10.11-14.46-16.83-17.19-15s.55,11.51,7.31,21.62c6.22,9.28,13.2,15.68,16.41,15.25L1071,1025.1a2.18,2.18,0,1,0,4.28.85l5.46-27.57c2.81,1.62,11.71-1.63,21-7.85C1111.79,983.77,1118.51,976.07,1116.68,973.35Z"/><path class="cls-44" d="M1174.51,1064.34c2.21.94,8.11,4.52,12.27,7.09a126.35,126.35,0,0,0,17-20.18c-11.73-.19-33.25-.82-38.58-2.91-7.46-2.93-19.16-6.85-11.4-14.51,6.44-6.35,39.05-5.4,58.75,2.59.43-.82.87-1.62,1.28-2.45a131.07,131.07,0,0,0,8.4-21.24l.45-1.64c-4.24-3.24-10.15-6.6-15.6-5.77-10,1.52-42.78,15.53-42.07,2.76.67-11.82,35.88-26.53,61.62-14.82,1-6.86,1.92-13.87,2.63-20.87-11.9,2.53-35.79,6.81-37.38.88-1.77-6.51,17.75-16.38,38.43-16,.13-4.07.1-8.1-.12-12-7.92,2.05-20.52,4.65-21.22.62s10.85-10.85,19.36-14.88a63.16,63.16,0,0,0-4.8-14.24c-3.34-7-10.53-10.95-19.2-12.14-1.3,5.33-3.16,13.64-3.42,18.32-.38,7.27-4.13,18.25-8.21,11.61-3.65-5.93-4.94-17.15.4-30.07a60.24,60.24,0,0,0-13.62,3c.18,12.36-.89,38.37-12.23,48.22-10.91,9.46-4.13-24.16.48-43.62-2.22,1-4.45,2-6.69,3.19a173.46,173.46,0,0,0-16.09,9.43c3.25,13,11.49,51.08-2.09,55.63-12.73,4.26-15.57-26.39-13.35-44.53a270.62,270.62,0,0,0-22.36,19.65c2.48,8.12,6.93,21.83,10.15,27.48,4.73,8.24,6.27,19.64,1,18.16-3.72-1-16.9-20.38-23.93-32.22-3.74,4.24-7.13,8.4-10.07,12.35a84.23,84.23,0,0,0-4.81,7c8.93,6.07,34.13,24.37,27.07,33.45-6.63,8.51-25.2-5.72-33.57-20.41-4.32,11.15-5.78,22.81-2.94,33.12.2.65.4,1.27.61,1.91,11.41-1.38,31.88-2,30,11.89-1.53,11.15-12.13,10.42-20.72,7.87,14.47,22.6,39.41,36.74,70,33a72.85,72.85,0,0,0,13.68-3.51,84.88,84.88,0,0,0,14-6.55c1.14-.87,2.22-1.74,3.31-2.64a38.22,38.22,0,0,0-17.93-1c-7.74,1.17-24.79,4.73-21.09-10.63S1171,1062.84,1174.51,1064.34Zm-53-49.45c-1.46-1.21-1.46-3.63,0-5.4s3.84-2.21,5.31-1,1.48,3.64,0,5.41S1123,1016.11,1121.52,1014.89ZM1182.29,947c-1.46-1.22-1.46-3.64,0-5.41s3.85-2.22,5.32-1,1.46,3.64,0,5.41S1183.76,948.26,1182.29,947Zm-10.14,31.36c.06-1.83,3.61-4.08,7.93-5s7.77-.21,7.72,1.62-3.61,4.08-7.93,5S1172.09,980.24,1172.15,978.4Zm-22,27.71c2-2.48,5.17-3.3,6.95-1.83s1.55,4.69-.52,7.17-5.17,3.3-6.94,1.82S1148.08,1008.59,1150.15,1006.11Zm-20.76,27.61c.58-2.2,5-3.82,9.91-3.61s8.38,2.17,7.8,4.37-5,3.83-9.91,3.62S1128.8,1035.93,1129.39,1033.72Zm-3.39,29.47c-2-1.65-1.89-5.06.22-7.61s5.45-3.28,7.44-1.63,1.89,5.06-.22,7.6S1128,1064.84,1126,1063.19Z"/><path class="cls-45" d="M1048.61,1149.09s-61.14-93.1-226.68-52.75C821.93,1096.34,896.88,1180.74,1048.61,1149.09Z"/><path class="cls-46" d="M888.29,1108.76s10.27,1.44,25.51,4.39c3.81.73,7.94,1.51,12.29,2.44s8.94,1.83,13.67,2.91,9.63,2.09,14.57,3.29l15,3.57,14.95,3.81c4.94,1.23,9.76,2.6,14.44,3.86s9.18,2.55,13.45,3.8,8.3,2.44,12,3.61c7.42,2.29,13.56,4.37,17.83,6,2.13.76,3.79,1.42,4.91,1.94l1.7.76-1.81-.45c-1.16-.33-2.93-.63-5.14-1.11l-18.35-3.75c-3.79-.79-7.91-1.63-12.24-2.6s-8.92-1.91-13.64-3-9.61-2.13-14.55-3.36l-15-3.6L953,1127.42c-4.94-1.22-9.75-2.57-14.45-3.79s-9.19-2.51-13.47-3.7-8.31-2.36-12-3.45C898.1,1112.14,888.28,1108.76,888.29,1108.76Z"/><path class="cls-47" d="M1043.34,1145.71s-9.67-111-174.56-153.91C868.78,991.8,894.75,1101.65,1043.34,1145.71Z"/><path class="cls-48" d="M921.31,1034.2s8.38,6.13,20.4,16c3,2.45,6.26,5.1,9.65,8s7,5.86,10.65,9,7.49,6.41,11.27,9.81l11.52,10.26,11.36,10.44c3.76,3.42,7.35,6.91,10.88,10.24s6.87,6.61,10,9.73,6.15,6.08,8.85,8.87c5.45,5.54,9.87,10.27,12.88,13.69,1.51,1.69,2.67,3,3.4,4l1.13,1.46-1.37-1.25c-.87-.84-2.27-1.93-4-3.4l-14.38-12c-3-2.5-6.19-5.19-9.54-8.1s-6.95-5.91-10.58-9.12-7.45-6.44-11.2-9.86l-11.5-10.28-11.36-10.4c-3.78-3.43-7.38-6.9-10.92-10.19s-6.91-6.57-10.12-9.64-6.2-6-9-8.75C928.35,1041.83,921.31,1034.19,921.31,1034.2Z"/><path class="cls-49" d="M1071.21,1071.24c11,2.24,24.8-2.56,32.29-5.74a82.92,82.92,0,0,0-7.58-47.18c-1.24-2.6-2.52-5.13-3.81-7.65a54,54,0,0,1-24.83-2.14c3.77,1.36,12.67-6.07,17.75-10.71a308.72,308.72,0,0,0-24.41-35.69c-11.55,3.62-20.41.81-20.41.81,5-.78,8.61-7.19,10.77-12.43-22.67-26.11-42.21-40.35-42.21-40.35A283.63,283.63,0,0,0,979,968.88c6.16,5.08,15.53,11.69,22.53,11.68,0,0-14.19,6.31-29,8.15a198.4,198.4,0,0,0-6.3,32.95c9.56.74,25,.91,30.55-4.95,0,0-11.24,23.9-30.53,37a119.64,119.64,0,0,0,14.2,45.18c10.54-4.78,25.11-12.7,28.65-21.16,0,0,1.74,15.45-19.23,35.56a136.92,136.92,0,0,0,24.93,24.92l39.69,10.21s33.74-28.11,45.63-67.44C1078.09,1080.5,1071.21,1071.24,1071.21,1071.24Z"/><path class="cls-50" d="M1014.76,943.94s1.31,3.22,3.45,8.92,5.11,13.88,8.43,23.78c1.66,5,3.45,10.32,5.22,16s3.69,11.72,5.49,18,3.72,12.74,5.45,19.37,3.49,13.37,5.16,20.14,3.13,13.58,4.57,20.29,2.62,13.37,3.74,19.81,2,12.72,2.71,18.68,1.22,11.63,1.48,16.87c.12,2.62.27,5.13.26,7.53s0,4.65-.09,6.79a93.15,93.15,0,0,1-1,11l-.75,4c-.23,1.16-.59,2.12-.8,2.91l-.71,2.4s.15-.86.44-2.47c.12-.8.37-1.77.46-3s.21-2.52.33-4c.13-3,.2-6.69,0-10.89,0-2.1-.24-4.34-.44-6.69s-.43-4.82-.73-7.39-.65-5.26-1-8-.84-5.62-1.3-8.56c-1-5.86-2.14-12-3.36-18.39-.66-3.18-1.32-6.41-2-9.69s-1.43-6.56-2.15-9.89c-1.48-6.66-3.06-13.41-4.71-20.14s-3.26-13.48-5-20.08-3.38-13.13-5-19.43l-9.16-34.38C1018.38,957.36,1014.76,943.94,1014.76,943.94Z"/></g><path class="cls-51" d="M1142.39,254.32A119.63,119.63,0,1,1,1022.76,134.7,119.63,119.63,0,0,1,1142.39,254.32Z"/><path class="cls-52" d="M1101.14,254.32A78.38,78.38,0,1,1,1022.76,176,78.38,78.38,0,0,1,1101.14,254.32Z"/></g></g></svg>